<svg width="217" height="157" fill="none" xmlns="http://www.w3.org/2000/svg"><path d="M198.47 24.543l2.14-10.754L187.874 0l1.313 18.752 9.283 5.79z" fill="url(#paint0_linear_4429_105391)"/><path d="M201.179 50.926l.013.04.034-.02.061.02v-.068l8.836-6.246.237-18.799-10.407 12.662-12.756-10.252 4.055 18.351 9.927 4.312z" fill="url(#paint1_linear_4429_105391)"/><path d="M197.678 81.41l.054.047.027-.075 11.673-3.612 6.812-20.123-15.607 9.96-10.129-15.493-2.039 21.148 9.162 8.106v.055l.047-.014z" fill="url(#paint2_linear_4429_105391)"/><path d="M186.161 75.937l-10.048 21.807 6.764 12.085-.021.054h.055l.04.075.061-.068 13.799.509 14.754-18.928-20.353 4.793-5.051-20.327z" fill="url(#paint3_linear_4429_105391)"/><path d="M172.023 98.953l-18.282 19.593 2.946 15.201-.048.048.061.02.02.095.088-.054 14.463 5.397 22.263-14.889-23.265-2.077 1.754-23.335z" fill="url(#paint4_linear_4429_105391)"/><path d="M148.704 115.695l-24.64 14.752-1.455 16.539-.061.041.054.04-.014.095.109-.027L136.001 157l27.355-8.711-23.366-9.07 8.714-23.524z" fill="url(#paint5_linear_4429_105391)"/><path d="M27.05 18.752L28.37 0 15.627 13.789l2.14 10.754 9.283-5.791z" fill="url(#paint6_linear_4429_105391)"/><path d="M14.95 50.898l.007.068.061-.02.034.02.013-.04 9.92-4.312 4.062-18.35-12.756 10.251L5.877 25.853l.237 18.8 8.836 6.245z" fill="url(#paint7_linear_4429_105391)"/><path d="M18.478 81.382l.034.075.054-.048.047.014-.006-.055 9.168-8.106-2.039-21.148L15.6 67.607 0 57.647 6.805 77.77l11.673 3.612z" fill="url(#paint8_linear_4429_105391)"/><path d="M33.293 109.958l.04-.075h.055l-.027-.054 6.764-12.085-10.042-21.807-5.05 20.327-20.354-4.793 14.747 18.928 13.806-.509.06.068z" fill="url(#paint9_linear_4429_105391)"/><path d="M59.524 133.91l.02-.095.054-.02-.04-.048 2.945-15.201L44.22 98.952l1.754 23.335-23.272 2.077 22.27 14.889 14.463-5.397.088.054z" fill="url(#paint10_linear_4429_105391)"/><path d="M93.635 146.986l-1.462-16.539-24.64-14.752 8.715 23.524-23.36 9.07L80.236 157l13.311-9.865.102.027-.007-.095.055-.04-.062-.041z" fill="url(#paint11_linear_4429_105391)"/><path fill="#E6004D" d="M84.122 49h42v36h-42z"/><path d="M105.132 24.05c16.348 0 29.787 12.455 31.347 28.393 12.385.736 22.202 11.012 22.202 23.581 0 12.519-9.736 22.761-22.049 23.572v.053h-56.7c-15.658 0-28.35-12.692-28.35-28.35 0-14.372 10.696-26.246 24.562-28.097 4.803-11.26 15.973-19.152 28.988-19.152zm-5.86 36.603l-13.04 1.828 9.45 8.882L93.444 83.9l11.687-5.922 11.686 5.922-2.236-12.537 9.45-8.883-13.041-1.827-5.859-11.403-5.86 11.403z" fill="#fff"/><path opacity=".2" d="M166.184 48.048c4.733 0 8.57-3.817 8.57-8.524 0-4.708-3.837-8.524-8.57-8.524-4.733 0-8.57 3.816-8.57 8.524 0 4.707 3.837 8.524 8.57 8.524z" fill="#E6004D"/><path d="M166.184 42.06a2.542 2.542 0 002.549-2.536c0-1.4-1.141-2.536-2.549-2.536a2.543 2.543 0 00-2.55 2.536c0 1.4 1.142 2.536 2.55 2.536z" fill="#E6004D"/><path opacity=".2" d="M138.67 21.048c2.512 0 4.549-2.026 4.549-4.524 0-2.499-2.037-4.524-4.549-4.524-2.512 0-4.548 2.025-4.548 4.524 0 2.498 2.036 4.524 4.548 4.524z" fill="#E6004D"/><path d="M138.67 17.87a1.35 1.35 0 001.353-1.346 1.35 1.35 0 00-1.353-1.346 1.35 1.35 0 00-1.353 1.346 1.35 1.35 0 001.353 1.346z" fill="#E6004D"/><path opacity=".2" d="M57.708 29.048c6.4 0 11.587-5.16 11.587-11.524C69.295 11.159 64.107 6 57.708 6c-6.398 0-11.586 5.16-11.586 11.524 0 6.364 5.188 11.524 11.586 11.524z" fill="#E6004D"/><path d="M57.708 20.953a3.438 3.438 0 003.447-3.429 3.438 3.438 0 00-3.447-3.428 3.438 3.438 0 00-3.447 3.428 3.438 3.438 0 003.447 3.429z" fill="#E6004D"/><defs><linearGradient id="paint0_linear_4429_105391" x1="194.238" y1="24.543" x2="194.238" y2="0" gradientUnits="userSpaceOnUse"><stop stop-color="#E41157" stop-opacity="0"/><stop offset="1" stop-color="#E41157"/></linearGradient><linearGradient id="paint1_linear_4429_105391" x1="198.782" y1="50.966" x2="198.782" y2="25.853" gradientUnits="userSpaceOnUse"><stop stop-color="#E41157" stop-opacity="0"/><stop offset="1" stop-color="#E41157"/></linearGradient><linearGradient id="paint2_linear_4429_105391" x1="202.357" y1="81.457" x2="202.357" y2="52.114" gradientUnits="userSpaceOnUse"><stop stop-color="#E41157" stop-opacity="0"/><stop offset="1" stop-color="#E41157"/></linearGradient><linearGradient id="paint3_linear_4429_105391" x1="193.839" y1="110.399" x2="193.839" y2="75.937" gradientUnits="userSpaceOnUse"><stop stop-color="#E41157" stop-opacity="0"/><stop offset="1" stop-color="#E41157"/></linearGradient><linearGradient id="paint4_linear_4429_105391" x1="173.634" y1="139.253" x2="173.634" y2="98.953" gradientUnits="userSpaceOnUse"><stop stop-color="#E41157" stop-opacity="0"/><stop offset="1" stop-color="#E41157"/></linearGradient><linearGradient id="paint5_linear_4429_105391" x1="142.948" y1="157" x2="142.948" y2="115.695" gradientUnits="userSpaceOnUse"><stop stop-color="#E41157"/><stop offset="1" stop-color="#E41157" stop-opacity="0"/></linearGradient><linearGradient id="paint6_linear_4429_105391" x1="21.999" y1="-20.32" x2="21.999" y2="-20.32" gradientUnits="userSpaceOnUse"><stop stop-color="#E41157" stop-opacity="0"/><stop offset="1" stop-color="#E41157"/></linearGradient><linearGradient id="paint7_linear_4429_105391" x1="17.462" y1="50.966" x2="17.462" y2="25.853" gradientUnits="userSpaceOnUse"><stop stop-color="#E41157" stop-opacity="0"/><stop offset="1" stop-color="#E41157"/></linearGradient><linearGradient id="paint8_linear_4429_105391" x1="13.887" y1="81.457" x2="13.887" y2="52.114" gradientUnits="userSpaceOnUse"><stop stop-color="#E41157" stop-opacity="0"/><stop offset="1" stop-color="#E41157"/></linearGradient><linearGradient id="paint9_linear_4429_105391" x1="22.398" y1="110.399" x2="22.398" y2="75.937" gradientUnits="userSpaceOnUse"><stop stop-color="#E41157" stop-opacity="0"/><stop offset="1" stop-color="#E41157"/></linearGradient><linearGradient id="paint10_linear_4429_105391" x1="42.603" y1="139.253" x2="42.603" y2="98.953" gradientUnits="userSpaceOnUse"><stop stop-color="#E41157" stop-opacity="0"/><stop offset="1" stop-color="#E41157"/></linearGradient><linearGradient id="paint11_linear_4429_105391" x1="73.289" y1="157" x2="73.289" y2="115.695" gradientUnits="userSpaceOnUse"><stop stop-color="#E41157"/><stop offset="1" stop-color="#E41157" stop-opacity="0"/></linearGradient></defs></svg>