<svg width="232" height="205" fill="none" xmlns="http://www.w3.org/2000/svg"><path d="M80.592 95.25l-11.863 6.85 6.85 11.864 11.862-6.849-6.85-11.864zm66.66 88.06l11.862-6.85-6.849-11.863.002-.001 6.849 11.864 23.725-13.698-6.849-11.863.002-.001-6.85-11.864-.002.001-6.849-11.864.002-.002-6.849-11.863-.002.001-6.849-11.863-11.863 6.849-6.85-11.864h.001l6.85 11.863 11.863-6.849-6.85-11.864h-.001l-6.849-11.862h.001l-6.849-11.864-23.728 13.7-.001-.002-23.726 13.7 6.85 11.863-.002.001 6.85 11.863v.001l-6.85-11.863-11.863 6.849-.001-.002-11.864 6.85 6.85 11.864 11.863-6.849-23.725 13.698 6.85 11.863-.002.001 6.85 11.864v-.001l13.7 23.727 35.589-20.548.001.001-11.862 6.849 6.849 11.863h-.001l6.849 11.863 11.863-6.849.001.001 11.864-6.85zm-47.947-83.045l.001-.001 6.85 11.864-.001.001-6.85-11.864zm25.563 16.877l-6.85-11.862.001-.001 6.849 11.864h.001l6.849 11.862v.001l6.849 11.863 11.863-6.849v.001l-11.863 6.849-13.699-23.728zm-35.59 20.549zm18.712 5.015l-11.864 6.85v-.001l11.865-6.851 6.85 11.863 11.862-6.848v.001l-11.864 6.849-6.849-11.863zm-16.878 25.561l11.863-6.849v.001l-11.863 6.849v-.001zm42.44-8.684l11.863-6.85.001.001-11.863 6.849h-.001zm23.726-13.699l.002-.001 6.85 11.864-.002.001-6.85-11.864zm-47.452 27.398l-11.864 6.85 6.849 11.863 11.864-6.85-6.849-11.863zm18.713 5.014l11.862-6.849.001.001-11.863 6.848zm-5.507-91.73l.001.001-11.863 6.85-.001-.002 11.863-6.849z" fill="#BDC4DA"/><path fill="#5E6785" d="M175.041 133.237l11.864-6.85-28.461-49.295-11.864 6.85z"/><path fill="#98A0B8" d="M172.296 149.732l11.864-6.85-40.489-70.128-11.864 6.85z"/><path fill="#fff" d="M123.046 86.558l11.864-6.85-6.85-11.863-11.864 6.85zm6.85 11.864l11.864-6.85-6.85-11.863-11.864 6.85z"/><path fill="#BDC4DA" d="M118.033 105.271l11.864-6.85-6.85-11.863-11.864 6.85z"/><path fill="#E3EDFF" d="M106.169 112.121l11.864-6.85-6.85-11.863-11.864 6.85z"/><path fill="#fff" d="M136.746 110.285l11.864-6.85-6.85-11.863-11.863 6.85z"/><path fill="#BDC4DA" d="M124.881 117.135l11.864-6.85-6.85-11.863-11.864 6.85zm25.563 16.878l11.864-6.85-6.85-11.863-11.864 6.85zm13.699 23.727l11.864-6.85-6.85-11.863-11.864 6.85z"/><path fill="#BDC4DA" d="M170.992 169.603l11.864-6.85-6.85-11.863-11.864 6.85z"/><path fill="#BDC4DA" d="M159.13 176.452l11.864-6.85-6.85-11.863-11.864 6.85z"/><path fill="#BDC4DA" d="M147.266 183.302l11.864-6.85-6.85-11.863-11.864 6.85z"/><path fill="#BDC4DA" d="M140.416 171.439l11.864-6.85-6.85-11.863-11.864 6.85z"/><path fill="#BDC4DA" d="M128.552 178.289l11.864-6.85-6.85-11.863-11.864 6.85z"/><path fill="#BDC4DA" d="M116.689 185.138l11.864-6.85-6.85-11.863-11.864 6.85zm-18.728-5.005l11.864-6.85-6.85-11.863-11.863 6.85zm-13.699-23.728l11.864-6.85-6.85-11.863-11.863 6.85zm-6.849-11.863l11.863-6.85-6.85-11.863-11.863 6.85z"/><path fill="#98A0B8" d="M152.28 164.588l11.864-6.85-6.85-11.863-11.864 6.85zm-16.878 25.564l11.864-6.85-6.85-11.863-11.864 6.85zm-25.563-16.878l11.864-6.85-6.85-11.863-11.863 6.85zm-6.849-11.864l11.864-6.85-6.85-11.863-11.864 6.85zm-11.88 6.859l11.864-6.85-6.849-11.863-11.864 6.85z"/><path fill="#98A0B8" d="M96.14 149.547l11.864-6.85-6.85-11.863-11.863 6.85zm-6.849-11.864l11.864-6.85-6.85-11.863-11.864 6.85z"/><path fill="#5E6785" d="M123.538 197.001l11.864-6.85-6.85-11.863-11.864 6.85zm-18.726-5.006l11.864-6.85-6.85-11.863-11.863 6.85zm-34.249-59.317l11.864-6.85-6.85-11.863-11.863 6.85zm-5.013 18.713l11.863-6.85-6.85-11.863-11.863 6.85zm6.849 11.864l11.864-6.85-6.85-11.863-11.864 6.85z"/><path fill="#5E6785" d="M79.248 175.118l11.864-6.85-6.85-11.863-11.863 6.85z"/><path fill="#5E6785" d="M86.097 186.982l11.864-6.85-27.334-47.343-11.864 6.85zm-10.505-73.026l11.864-6.85-6.85-11.863-11.863 6.85z"/><path fill="#fff" d="M157.293 145.876l11.864-6.85-6.85-11.863-11.863 6.85z"/><path fill="#E3EDFF" d="M113.018 123.985l11.864-6.85-6.85-11.863-11.863 6.85zm6.85 11.863l11.864-6.85-6.85-11.863-11.864 6.85z"/><path fill="#BDC4DA" d="M108.004 142.698l11.864-6.85-6.85-11.863-11.863 6.85z"/><path fill="#fff" d="M94.305 118.97l11.864-6.85-6.85-11.863-11.863 6.85z"/><path fill="#BDC4DA" d="M87.456 107.106l11.863-6.85-6.85-11.863-11.863 6.85zm-5.014 18.713l11.864-6.85-6.85-11.863-11.863 6.85z"/><path fill="#E3EDFF" d="M131.732 128.999l11.864-6.85-6.85-11.863-11.864 6.85z"/><path fill="#fff" d="M126.716 147.713l11.864-6.85L131.73 129l-11.864 6.85z"/><path fill="#BDC4DA" d="M114.854 154.561l11.864-6.85-6.85-11.863-11.863 6.85z"/><path fill="#fff" d="M101.155 130.834l11.864-6.85-6.85-11.863-11.863 6.85z"/><path fill="#E3EDFF" d="M133.566 159.575l11.864-6.85-6.85-11.863-11.864 6.85zm-11.864 6.85l11.864-6.85-6.85-11.863-11.863 6.85z"/><path fill="#fff" d="M138.581 140.862l11.864-6.85-6.85-11.863-11.864 6.85z"/><path fill="#E3EDFF" d="M145.43 152.726l11.864-6.85-6.85-11.863-11.863 6.85z"/><path fill="#fff" d="M143.595 122.149l11.864-6.85-6.85-11.863-11.864 6.85zm-32.412-28.742l11.864-6.85-6.85-11.863-11.863 6.85zm-11.865 6.851l11.864-6.85-6.85-11.863-11.863 6.85zm99.397-90.321l.998-3.853 3.528-1.09-3.528-1.089-.998-3.841-.997 3.841-3.528 1.09 3.528 1.089.997 3.853zM195.025 70l3.086-11.22L209 55.603l-10.889-3.18-3.086-11.22-3.111 11.22-10.889 3.18 10.889 3.179L195.025 70zm-41.974-31.266l1.989-7.049 7.061-2.001-7.061-2.002-1.989-7.049-2.002 7.05-7.049 2 7.049 2.002 2.002 7.05zM9.05 118.102l1.99-7.05 7.061-2.001-7.061-2.002L9.05 100l-2 7.049L0 109.051l7.05 2.001 2 7.05z"/><path d="M218 195l3.076-10.904L232 181l-10.924-3.096L218 167l-3.096 10.904L204 181l10.904 3.096L218 195zm-24.475 9.874l.998-3.854 3.528-1.089-3.528-1.089-.998-3.842-.997 3.842-3.528 1.089 3.528 1.089.997 3.854z" fill="#9F9F9F"/></svg>