<svg width="639" height="107" fill="none" xmlns="http://www.w3.org/2000/svg"><rect x=".5" y=".5" width="637.47" height="105.275" rx="24.025" stroke="url(#paint0_linear_4216_8700)"/><g clip-path="url(#clip0_4216_8700)"><g clip-path="url(#clip1_4216_8700)"><g clip-path="url(#clip2_4216_8700)"><path d="M83.825 61.308l-4.905-1.635v-35.97l4.905-1.635v39.24zm-4.088-21.255v3.27h3.27v-3.27h-3.27z" fill="#9F9F9F"/></g><g clip-path="url(#clip3_4216_8700)"><path fill="#fff" fill-opacity=".08" d="M83.824 22.068h285.31v45.78H83.823z"/><g clip-path="url(#clip4_4216_8700)"><path fill="#fff" fill-opacity=".08" d="M83.824 22.068h4.905v16.35h-4.905z"/><g clip-path="url(#clip5_4216_8700)"><path d="M91.998 38.417h-3.27v-3.27h3.27v3.27zm0-6.54h-3.27v-3.27h3.27v3.27zm0-6.54h-3.27v-3.27h3.27v3.27z" fill="#fff" fill-opacity=".08"/></g><path fill="#fff" fill-opacity=".08" d="M92 22.068h4.905v16.35H92z"/><g clip-path="url(#clip6_4216_8700)"><path d="M100.174 38.417h-3.27v-3.27h3.27v3.27zm0-6.54h-3.27v-3.27h3.27v3.27zm0-6.54h-3.27v-3.27h3.27v3.27z" fill="#fff" fill-opacity=".08"/></g><path fill="#fff" fill-opacity=".08" d="M100.174 22.068h4.905v16.35h-4.905z"/><g clip-path="url(#clip7_4216_8700)"><path d="M108.348 38.417h-3.27v-3.27h3.27v3.27zm0-6.54h-3.27v-3.27h3.27v3.27zm0-6.54h-3.27v-3.27h3.27v3.27z" fill="#fff" fill-opacity=".08"/></g><path fill="#fff" fill-opacity=".08" d="M108.35 22.068h4.905v16.35h-4.905z"/><g clip-path="url(#clip8_4216_8700)"><path d="M116.523 38.417h-3.269v-3.27h3.269v3.27zm0-6.54h-3.269v-3.27h3.269v3.27zm0-6.54h-3.269v-3.27h3.269v3.27z" fill="#fff" fill-opacity=".08"/></g><path fill="#fff" fill-opacity=".08" d="M116.523 22.068h4.905v16.35h-4.905z"/><g clip-path="url(#clip9_4216_8700)"><path d="M124.697 38.417h-3.269v-3.27h3.269v3.27zm0-6.54h-3.269v-3.27h3.269v3.27zm0-6.54h-3.269v-3.27h3.269v3.27z" fill="#fff" fill-opacity=".08"/></g><path fill="#fff" fill-opacity=".08" d="M124.699 22.068h4.905v16.35h-4.905z"/><g clip-path="url(#clip10_4216_8700)"><path d="M132.873 38.417h-3.269v-3.27h3.269v3.27zm0-6.54h-3.269v-3.27h3.269v3.27zm0-6.54h-3.269v-3.27h3.269v3.27z" fill="#fff" fill-opacity=".08"/></g><path fill="#fff" fill-opacity=".08" d="M132.875 22.068h4.905v16.35h-4.905z"/><g clip-path="url(#clip11_4216_8700)"><path d="M141.049 38.417h-3.27v-3.27h3.27v3.27zm0-6.54h-3.27v-3.27h3.27v3.27zm0-6.54h-3.27v-3.27h3.27v3.27z" fill="#fff" fill-opacity=".08"/></g><path fill="#fff" fill-opacity=".08" d="M141.049 22.068h4.905v16.35h-4.905z"/><g clip-path="url(#clip12_4216_8700)"><path d="M149.223 38.417h-3.27v-3.27h3.27v3.27zm0-6.54h-3.27v-3.27h3.27v3.27zm0-6.54h-3.27v-3.27h3.27v3.27z" fill="#fff" fill-opacity=".08"/></g><path fill="#fff" fill-opacity=".08" d="M149.225 22.068h4.905v16.35h-4.905z"/><g clip-path="url(#clip13_4216_8700)"><path d="M157.398 38.417h-3.269v-3.27h3.269v3.27zm0-6.54h-3.269v-3.27h3.269v3.27zm0-6.54h-3.269v-3.27h3.269v3.27z" fill="#fff" fill-opacity=".08"/></g><path fill="#fff" fill-opacity=".08" d="M157.4 22.068h4.905v16.35H157.4z"/><g clip-path="url(#clip14_4216_8700)"><path d="M165.574 38.417h-3.269v-3.27h3.269v3.27zm0-6.54h-3.269v-3.27h3.269v3.27zm0-6.54h-3.269v-3.27h3.269v3.27z" fill="#fff" fill-opacity=".08"/></g><path fill="#fff" fill-opacity=".08" d="M165.574 22.068h4.905v16.35h-4.905z"/><g clip-path="url(#clip15_4216_8700)"><path d="M173.748 38.417h-3.269v-3.27h3.269v3.27zm0-6.54h-3.269v-3.27h3.269v3.27zm0-6.54h-3.269v-3.27h3.269v3.27z" fill="#fff" fill-opacity=".08"/></g><path fill="#fff" fill-opacity=".08" d="M173.75 22.068h4.905v16.35h-4.905z"/><g clip-path="url(#clip16_4216_8700)"><path d="M181.924 38.417h-3.27v-3.27h3.27v3.27zm0-6.54h-3.27v-3.27h3.27v3.27zm0-6.54h-3.27v-3.27h3.27v3.27z" fill="#fff" fill-opacity=".08"/></g><path fill="#fff" fill-opacity=".08" d="M181.924 22.068h4.905v16.35h-4.905z"/><g clip-path="url(#clip17_4216_8700)"><path d="M190.098 38.417h-3.27v-3.27h3.27v3.27zm0-6.54h-3.27v-3.27h3.27v3.27zm0-6.54h-3.27v-3.27h3.27v3.27z" fill="#fff" fill-opacity=".08"/></g><path fill="#fff" fill-opacity=".08" d="M190.1 22.068h4.905v16.35H190.1z"/><g clip-path="url(#clip18_4216_8700)"><path d="M198.273 38.417h-3.269v-3.27h3.269v3.27zm0-6.54h-3.269v-3.27h3.269v3.27zm0-6.54h-3.269v-3.27h3.269v3.27z" fill="#fff" fill-opacity=".08"/></g><path fill="#fff" fill-opacity=".08" d="M198.275 22.068h4.905v16.35h-4.905z"/><g clip-path="url(#clip19_4216_8700)"><path d="M206.449 38.417h-3.269v-3.27h3.269v3.27zm0-6.54h-3.269v-3.27h3.269v3.27zm0-6.54h-3.269v-3.27h3.269v3.27z" fill="#fff" fill-opacity=".08"/></g><path fill="#fff" fill-opacity=".08" d="M206.449 22.068h4.905v16.35h-4.905z"/><g clip-path="url(#clip20_4216_8700)"><path d="M214.623 38.417h-3.269v-3.27h3.269v3.27zm0-6.54h-3.269v-3.27h3.269v3.27zm0-6.54h-3.269v-3.27h3.269v3.27z" fill="#fff" fill-opacity=".08"/></g><path fill="#fff" fill-opacity=".08" d="M214.625 22.068h4.905v16.35h-4.905z"/><g clip-path="url(#clip21_4216_8700)"><path d="M222.799 38.417h-3.27v-3.27h3.27v3.27zm0-6.54h-3.27v-3.27h3.27v3.27zm0-6.54h-3.27v-3.27h3.27v3.27z" fill="#fff" fill-opacity=".08"/></g><path fill="#fff" fill-opacity=".08" d="M222.799 22.068h4.905v16.35h-4.905z"/><g clip-path="url(#clip22_4216_8700)"><path d="M230.973 38.417h-3.27v-3.27h3.27v3.27zm0-6.54h-3.27v-3.27h3.27v3.27zm0-6.54h-3.27v-3.27h3.27v3.27z" fill="#fff" fill-opacity=".08"/></g><path fill="#fff" fill-opacity=".08" d="M230.975 22.068h4.905v16.35h-4.905z"/><g clip-path="url(#clip23_4216_8700)"><path d="M239.148 38.417h-3.269v-3.27h3.269v3.27zm0-6.54h-3.269v-3.27h3.269v3.27zm0-6.54h-3.269v-3.27h3.269v3.27z" fill="#fff" fill-opacity=".08"/></g><path fill="#fff" fill-opacity=".08" d="M239.15 22.068h4.905v16.35h-4.905z"/><g clip-path="url(#clip24_4216_8700)"><path d="M247.324 38.417h-3.269v-3.27h3.269v3.27zm0-6.54h-3.269v-3.27h3.269v3.27zm0-6.54h-3.269v-3.27h3.269v3.27z" fill="#fff" fill-opacity=".08"/></g><path fill="#fff" fill-opacity=".08" d="M247.324 22.068h4.905v16.35h-4.905z"/><g clip-path="url(#clip25_4216_8700)"><path d="M255.498 38.417h-3.269v-3.27h3.269v3.27zm0-6.54h-3.269v-3.27h3.269v3.27zm0-6.54h-3.269v-3.27h3.269v3.27z" fill="#fff" fill-opacity=".08"/></g><path fill="#fff" fill-opacity=".08" d="M255.5 22.068h4.905v16.35H255.5z"/><g clip-path="url(#clip26_4216_8700)"><path d="M263.674 38.417h-3.27v-3.27h3.27v3.27zm0-6.54h-3.27v-3.27h3.27v3.27zm0-6.54h-3.27v-3.27h3.27v3.27z" fill="#fff" fill-opacity=".08"/></g><path fill="#fff" fill-opacity=".08" d="M263.676 22.068h4.905v16.35h-4.905z"/><g clip-path="url(#clip27_4216_8700)"><path d="M271.85 38.417h-3.27v-3.27h3.27v3.27zm0-6.54h-3.27v-3.27h3.27v3.27zm0-6.54h-3.27v-3.27h3.27v3.27z" fill="#fff" fill-opacity=".08"/></g><path fill="#fff" fill-opacity=".08" d="M271.85 22.068h4.905v16.35h-4.905z"/><g clip-path="url(#clip28_4216_8700)"><path d="M280.023 38.417h-3.269v-3.27h3.269v3.27zm0-6.54h-3.269v-3.27h3.269v3.27zm0-6.54h-3.269v-3.27h3.269v3.27z" fill="#fff" fill-opacity=".08"/></g><path fill="#fff" fill-opacity=".08" d="M280.025 22.068h4.905v16.35h-4.905z"/><g clip-path="url(#clip29_4216_8700)"><path d="M288.199 38.417h-3.269v-3.27h3.269v3.27zm0-6.54h-3.269v-3.27h3.269v3.27zm0-6.54h-3.269v-3.27h3.269v3.27z" fill="#fff" fill-opacity=".08"/></g><path fill="#fff" fill-opacity=".08" d="M288.199 22.068h4.905v16.35h-4.905z"/><g clip-path="url(#clip30_4216_8700)"><path d="M296.373 38.417h-3.269v-3.27h3.269v3.27zm0-6.54h-3.269v-3.27h3.269v3.27zm0-6.54h-3.269v-3.27h3.269v3.27z" fill="#fff" fill-opacity=".08"/></g><path fill="#fff" fill-opacity=".08" d="M296.375 22.068h4.905v16.35h-4.905z"/><g clip-path="url(#clip31_4216_8700)"><path d="M304.549 38.417h-3.27v-3.27h3.27v3.27zm0-6.54h-3.27v-3.27h3.27v3.27zm0-6.54h-3.27v-3.27h3.27v3.27z" fill="#fff" fill-opacity=".08"/></g><path fill="#fff" fill-opacity=".08" d="M304.551 22.068h4.905v16.35h-4.905z"/><g clip-path="url(#clip32_4216_8700)"><path d="M312.725 38.417h-3.27v-3.27h3.27v3.27zm0-6.54h-3.27v-3.27h3.27v3.27zm0-6.54h-3.27v-3.27h3.27v3.27z" fill="#fff" fill-opacity=".08"/></g><path fill="#fff" fill-opacity=".08" d="M312.725 22.068h4.905v16.35h-4.905z"/><g clip-path="url(#clip33_4216_8700)"><path d="M320.898 38.417h-3.269v-3.27h3.269v3.27zm0-6.54h-3.269v-3.27h3.269v3.27zm0-6.54h-3.269v-3.27h3.269v3.27z" fill="#fff" fill-opacity=".08"/></g><path fill="#fff" fill-opacity=".08" d="M320.9 22.068h4.905v16.35H320.9z"/><g clip-path="url(#clip34_4216_8700)"><path d="M329.074 38.417h-3.269v-3.27h3.269v3.27zm0-6.54h-3.269v-3.27h3.269v3.27zm0-6.54h-3.269v-3.27h3.269v3.27z" fill="#fff" fill-opacity=".08"/></g><path fill="#fff" fill-opacity=".08" d="M329.074 22.068h4.905v16.35h-4.905z"/><g clip-path="url(#clip35_4216_8700)"><path d="M337.248 38.417h-3.269v-3.27h3.269v3.27zm0-6.54h-3.269v-3.27h3.269v3.27zm0-6.54h-3.269v-3.27h3.269v3.27z" fill="#fff" fill-opacity=".08"/></g><path fill="#fff" fill-opacity=".08" d="M337.25 22.068h4.905v16.35h-4.905z"/><g clip-path="url(#clip36_4216_8700)"><path d="M345.424 38.417h-3.27v-3.27h3.27v3.27zm0-6.54h-3.27v-3.27h3.27v3.27zm0-6.54h-3.27v-3.27h3.27v3.27z" fill="#fff" fill-opacity=".08"/></g><path fill="#fff" fill-opacity=".08" d="M345.426 22.068h4.905v16.35h-4.905z"/><g clip-path="url(#clip37_4216_8700)"><path d="M353.6 38.417h-3.27v-3.27h3.27v3.27zm0-6.54h-3.27v-3.27h3.27v3.27zm0-6.54h-3.27v-3.27h3.27v3.27z" fill="#fff" fill-opacity=".08"/></g><path fill="#fff" fill-opacity=".08" d="M353.6 22.068h4.905v16.35H353.6z"/><g clip-path="url(#clip38_4216_8700)"><path d="M361.773 38.417h-3.269v-3.27h3.269v3.27zm0-6.54h-3.269v-3.27h3.269v3.27zm0-6.54h-3.269v-3.27h3.269v3.27z" fill="#fff" fill-opacity=".08"/></g><path fill="#fff" fill-opacity=".08" d="M361.775 22.068h4.905v16.35h-4.905z"/><g clip-path="url(#clip39_4216_8700)"><path d="M369.949 38.417h-3.269v-3.27h3.269v3.27zm0-6.54h-3.269v-3.27h3.269v3.27zm0-6.54h-3.269v-3.27h3.269v3.27z" fill="#fff" fill-opacity=".08"/></g></g><path fill="#E6004D" d="M85.459 23.702h42v16h-42z"/><path d="M93.668 35.798c-1.968 0-3.432-1.56-3.432-4.296s1.464-4.296 3.432-4.296c1.956 0 3.42 1.56 3.42 4.296s-1.464 4.296-3.42 4.296zm0-1.068c1.308 0 2.22-1.08 2.22-3.228s-.912-3.228-2.22-3.228c-1.32 0-2.232 1.08-2.232 3.228s.912 3.228 2.232 3.228zm8.004 1.068c-1.968 0-3.432-1.56-3.432-4.296s1.464-4.296 3.432-4.296c1.956 0 3.42 1.56 3.42 4.296s-1.464 4.296-3.42 4.296zm0-1.068c1.308 0 2.22-1.08 2.22-3.228s-.912-3.228-2.22-3.228c-1.32 0-2.232 1.08-2.232 3.228s.912 3.228 2.232 3.228zm5.364-3.804a.812.812 0 01-.816-.828c0-.48.372-.816.816-.816.432 0 .792.336.792.816 0 .48-.36.828-.792.828zm0 4.848a.812.812 0 01-.816-.828c0-.48.372-.816.816-.816.432 0 .792.336.792.816 0 .48-.36.828-.792.828zm5.143-4.944c1.68.156 2.532 1.104 2.532 2.4 0 1.416-1.044 2.568-3.18 2.568-1.2 0-2.376-.384-3.084-1.02l.552-.948c.564.528 1.5.9 2.532.9 1.26 0 1.98-.576 1.98-1.488 0-.888-.636-1.464-2.076-1.464h-.672v-.84l2.112-2.592h-4.044v-1.044h5.544v.816l-2.196 2.712zm7.083 4.968c-1.968 0-3.432-1.56-3.432-4.296s1.464-4.296 3.432-4.296c1.956 0 3.42 1.56 3.42 4.296s-1.464 4.296-3.42 4.296zm0-1.068c1.308 0 2.22-1.08 2.22-3.228s-.912-3.228-2.22-3.228c-1.32 0-2.232 1.08-2.232 3.228s.912 3.228 2.232 3.228z" fill="#fff"/></g><g clip-path="url(#clip40_4216_8700)"><path d="M369.132 61.308l4.905-1.635v-35.97l-4.905-1.635v39.24zm4.088-21.255v3.27h-3.271v-3.27h3.271z" fill="#9F9F9F"/></g></g><path fill="#DFDFDF" d="M34.92 60.943h.818v6.54h-.818z"/><path fill="#9F9F9F" d="M49.287 65.848h.818v1.635h-.818zm14.367 0h.818v1.635h-.818zm14.366 0h.817v1.635h-.818zm14.367 0h.818v1.635h-.818z"/><path fill="#DFDFDF" d="M106.754 64.578h.818v3.27h-.818z"/><path fill="#9F9F9F" d="M121.121 65.848h.818v1.635h-.818zm14.367 0h.818v1.635h-.818zm14.367 0h.818v1.635h-.818zm14.366 0h.818v1.635h-.818z"/><path fill="#DFDFDF" d="M178.588 64.578h.818v3.27h-.818z"/><path fill="#9F9F9F" d="M192.955 65.848h.818v1.635h-.818zm14.367 0h.818v1.635h-.818zm14.367 0h.818v1.635h-.818zm14.366 0h.818v1.635h-.818z"/><path fill="#DFDFDF" d="M250.422 64.578h.818v3.27h-.818z"/><path fill="#9F9F9F" d="M264.789 65.848h.818v1.635h-.818zm14.367 0h.818v1.635h-.818zm14.367 0h.818v1.635h-.818zm14.366 0h.818v1.635h-.818z"/><path fill="#DFDFDF" d="M322.256 64.578h.818v3.27h-.818z"/><path fill="#9F9F9F" d="M336.623 65.848h.818v1.635h-.818zm14.367 0h.818v1.635h-.818zm14.367 0h.818v1.635h-.818zm14.368 0h.818v1.635h-.818z"/><path fill="#DFDFDF" d="M394.09 64.578h.818v3.27h-.818z"/><path fill="#9F9F9F" d="M408.457 65.848h.818v1.635h-.818zm14.367 0h.818v1.635h-.818zm14.367 0h.818v1.635h-.818zm14.368 0h.818v1.635h-.818z"/><path fill="#DFDFDF" d="M465.924 60.943h.818v6.54h-.818z"/><path fill="#9F9F9F" d="M480.291 65.848h.818v1.635h-.818zm14.367 0h.818v1.635h-.818zm14.367 0h.818v1.635h-.818zm14.368 0h.818v1.635h-.818z"/><path fill="#DFDFDF" d="M537.758 64.578h.818v3.27h-.818z"/><path fill="#9F9F9F" d="M552.125 65.848h.818v1.635h-.818zm14.367 0h.818v1.635h-.818zm14.367 0h.818v1.635h-.818zm14.368 0h.818v1.635h-.818z"/><path fill="#DFDFDF" d="M609.594 64.578h.818v3.27h-.818z"/><path fill="#9F9F9F" d="M623.959 65.848h.818v1.635h-.818z"/><path fill="#fff" fill-opacity=".08" d="M34.92 67.848h589.857v3.27H34.92z"/><path fill="#303030" d="M34.92 68.213h144.698v3.27H34.92z"/><path fill="#E6004D" fill-opacity=".56" d="M34.92 68.213h522.147v3.27H34.92z"/><path d="M557.476 71.892h-5.723v-7.168l.183-.121 2.452-1.635.226-.152.228.152 2.634 1.756v7.168z" fill="#E6004D" stroke="#202020" stroke-width=".818"/><path d="M24.527 87.214c-1.968 0-3.431-1.56-3.431-4.296s1.463-4.296 3.431-4.296c1.956 0 3.42 1.56 3.42 4.296s-1.463 4.296-3.42 4.296zm0-1.068c1.308 0 2.22-1.08 2.22-3.228s-.912-3.228-2.22-3.228c-1.32 0-2.232 1.08-2.232 3.228s.912 3.228 2.232 3.228zm13.044-5.448c1.548 0 2.604.888 2.604 2.76v3.66h-1.152V83.59c0-1.248-.6-1.86-1.644-1.86-1.152 0-1.908.732-1.908 2.112v3.276H34.32V83.59c0-1.248-.6-1.86-1.644-1.86-1.152 0-1.908.732-1.908 2.112v3.276h-1.152v-6.36h1.104v.948c.456-.648 1.236-1.008 2.196-1.008.972 0 1.788.384 2.208 1.176.48-.72 1.368-1.176 2.448-1.176zm53.959 6.516c-1.969 0-3.433-1.56-3.433-4.296s1.465-4.296 3.433-4.296c1.956 0 3.42 1.56 3.42 4.296s-1.465 4.296-3.42 4.296zm0-1.068c1.308 0 2.22-1.08 2.22-3.228s-.912-3.228-2.22-3.228c-1.32 0-2.233 1.08-2.233 3.228s.913 3.228 2.233 3.228zm8.003 1.068c-1.968 0-3.432-1.56-3.432-4.296s1.464-4.296 3.432-4.296c1.956 0 3.42 1.56 3.42 4.296s-1.464 4.296-3.42 4.296zm0-1.068c1.308 0 2.22-1.08 2.22-3.228s-.912-3.228-2.22-3.228c-1.32 0-2.232 1.08-2.232 3.228s.912 3.228 2.232 3.228zm5.364-3.804a.812.812 0 01-.816-.828c0-.48.372-.816.816-.816.432 0 .792.336.792.816 0 .48-.36.828-.792.828zm0 4.848a.812.812 0 01-.816-.828c0-.48.372-.816.816-.816.432 0 .792.336.792.816 0 .48-.36.828-.792.828zm1.447-8.472h3.084v8.4h-1.188v-7.356h-1.896v-1.044zm8.353 8.496c-1.968 0-3.432-1.56-3.432-4.296s1.464-4.296 3.432-4.296c1.956 0 3.42 1.56 3.42 4.296s-1.464 4.296-3.42 4.296zm0-1.068c1.308 0 2.22-1.08 2.22-3.228s-.912-3.228-2.22-3.228c-1.32 0-2.232 1.08-2.232 3.228s.912 3.228 2.232 3.228zm47.874 1.068c-1.968 0-3.432-1.56-3.432-4.296s1.464-4.296 3.432-4.296c1.956 0 3.42 1.56 3.42 4.296s-1.464 4.296-3.42 4.296zm0-1.068c1.308 0 2.22-1.08 2.22-3.228s-.912-3.228-2.22-3.228c-1.32 0-2.232 1.08-2.232 3.228s.912 3.228 2.232 3.228zm8.003 1.068c-1.968 0-3.432-1.56-3.432-4.296s1.464-4.296 3.432-4.296c1.956 0 3.42 1.56 3.42 4.296s-1.464 4.296-3.42 4.296zm0-1.068c1.308 0 2.22-1.08 2.22-3.228s-.912-3.228-2.22-3.228c-1.32 0-2.232 1.08-2.232 3.228s.912 3.228 2.232 3.228zm5.364-3.804a.812.812 0 01-.816-.828c0-.48.372-.816.816-.816.432 0 .792.336.792.816 0 .48-.36.828-.792.828zm0 4.848a.812.812 0 01-.816-.828c0-.48.372-.816.816-.816.432 0 .792.336.792.816 0 .48-.36.828-.792.828zm3.523-1.116h4.308v1.044h-6.036v-.816l3.42-3.3c.888-.864 1.056-1.392 1.056-1.92 0-.864-.612-1.392-1.788-1.392-.9 0-1.632.288-2.148.912l-.816-.708c.648-.804 1.764-1.272 3.072-1.272 1.752 0 2.88.9 2.88 2.34 0 .816-.24 1.548-1.38 2.64l-2.568 2.472zm8.692 1.14c-1.968 0-3.432-1.56-3.432-4.296s1.464-4.296 3.432-4.296c1.956 0 3.42 1.56 3.42 4.296s-1.464 4.296-3.42 4.296zm0-1.068c1.308 0 2.22-1.08 2.22-3.228s-.912-3.228-2.22-3.228c-1.32 0-2.232 1.08-2.232 3.228s.912 3.228 2.232 3.228zm46.658 1.068c-1.968 0-3.432-1.56-3.432-4.296s1.464-4.296 3.432-4.296c1.956 0 3.42 1.56 3.42 4.296s-1.464 4.296-3.42 4.296zm0-1.068c1.308 0 2.22-1.08 2.22-3.228s-.912-3.228-2.22-3.228c-1.32 0-2.232 1.08-2.232 3.228s.912 3.228 2.232 3.228zm8.004 1.068c-1.968 0-3.432-1.56-3.432-4.296s1.464-4.296 3.432-4.296c1.956 0 3.42 1.56 3.42 4.296s-1.464 4.296-3.42 4.296zm0-1.068c1.308 0 2.22-1.08 2.22-3.228s-.912-3.228-2.22-3.228c-1.32 0-2.232 1.08-2.232 3.228s.912 3.228 2.232 3.228zm5.364-3.804a.812.812 0 01-.816-.828c0-.48.372-.816.816-.816.432 0 .792.336.792.816 0 .48-.36.828-.792.828zm0 4.848a.812.812 0 01-.816-.828c0-.48.372-.816.816-.816.432 0 .792.336.792.816 0 .48-.36.828-.792.828zm5.142-4.944c1.68.156 2.532 1.104 2.532 2.4 0 1.416-1.044 2.568-3.18 2.568-1.2 0-2.376-.384-3.084-1.02l.552-.948c.564.528 1.5.9 2.532.9 1.26 0 1.98-.576 1.98-1.488 0-.888-.636-1.464-2.076-1.464h-.672v-.84l2.112-2.592h-4.044v-1.044h5.544v.816l-2.196 2.712zm7.083 4.968c-1.968 0-3.432-1.56-3.432-4.296s1.464-4.296 3.432-4.296c1.956 0 3.42 1.56 3.42 4.296s-1.464 4.296-3.42 4.296zm0-1.068c1.308 0 2.22-1.08 2.22-3.228s-.912-3.228-2.22-3.228c-1.32 0-2.232 1.08-2.232 3.228s.912 3.228 2.232 3.228zm46.073 1.068c-1.968 0-3.432-1.56-3.432-4.296s1.464-4.296 3.432-4.296c1.956 0 3.42 1.56 3.42 4.296s-1.464 4.296-3.42 4.296zm0-1.068c1.308 0 2.22-1.08 2.22-3.228s-.912-3.228-2.22-3.228c-1.32 0-2.232 1.08-2.232 3.228s.912 3.228 2.232 3.228zm8.004 1.068c-1.968 0-3.432-1.56-3.432-4.296s1.464-4.296 3.432-4.296c1.956 0 3.42 1.56 3.42 4.296s-1.464 4.296-3.42 4.296zm0-1.068c1.308 0 2.22-1.08 2.22-3.228s-.912-3.228-2.22-3.228c-1.32 0-2.232 1.08-2.232 3.228s.912 3.228 2.232 3.228zm5.364-3.804a.812.812 0 01-.816-.828c0-.48.372-.816.816-.816.432 0 .792.336.792.816 0 .48-.36.828-.792.828zm0 4.848a.812.812 0 01-.816-.828c0-.48.372-.816.816-.816.432 0 .792.336.792.816 0 .48-.36.828-.792.828zm9.234-3.168v1.032h-1.596v2.064h-1.164v-2.064h-4.668v-.84l4.296-5.496h1.296l-4.116 5.304h3.228v-1.824h1.128v1.824h1.596zm4.152 3.192c-1.968 0-3.432-1.56-3.432-4.296s1.464-4.296 3.432-4.296c1.956 0 3.42 1.56 3.42 4.296s-1.464 4.296-3.42 4.296zm0-1.068c1.308 0 2.22-1.08 2.22-3.228s-.912-3.228-2.22-3.228c-1.32 0-2.232 1.08-2.232 3.228s.912 3.228 2.232 3.228zm46.062 1.068c-1.968 0-3.432-1.56-3.432-4.296s1.464-4.296 3.432-4.296c1.956 0 3.42 1.56 3.42 4.296s-1.464 4.296-3.42 4.296zm0-1.068c1.308 0 2.22-1.08 2.22-3.228s-.912-3.228-2.22-3.228c-1.32 0-2.232 1.08-2.232 3.228s.912 3.228 2.232 3.228zm8.004 1.068c-1.968 0-3.432-1.56-3.432-4.296s1.464-4.296 3.432-4.296c1.956 0 3.42 1.56 3.42 4.296s-1.464 4.296-3.42 4.296zm0-1.068c1.308 0 2.22-1.08 2.22-3.228s-.912-3.228-2.22-3.228c-1.32 0-2.232 1.08-2.232 3.228s.912 3.228 2.232 3.228zm5.364-3.804a.812.812 0 01-.816-.828c0-.48.372-.816.816-.816.432 0 .792.336.792.816 0 .48-.36.828-.792.828zm0 4.848a.812.812 0 01-.816-.828c0-.48.372-.816.816-.816.432 0 .792.336.792.816 0 .48-.36.828-.792.828zm4.327-5.124c2.508 0 3.492 1.044 3.492 2.532 0 1.452-1.032 2.616-3.18 2.616-1.188 0-2.364-.384-3.084-1.02l.552-.948c.564.528 1.5.9 2.52.9 1.272 0 1.992-.588 1.992-1.5 0-.948-.6-1.536-2.544-1.536h-1.908l.444-4.392h4.74v1.044h-3.732l-.228 2.304h.936zm7.922 5.148c-1.968 0-3.432-1.56-3.432-4.296s1.464-4.296 3.432-4.296c1.956 0 3.42 1.56 3.42 4.296s-1.464 4.296-3.42 4.296zm0-1.068c1.308 0 2.22-1.08 2.22-3.228s-.912-3.228-2.22-3.228c-1.32 0-2.232 1.08-2.232 3.228s.912 3.228 2.232 3.228zm50.967-7.428h3.084v8.4h-1.188v-7.356h-1.896v-1.044zm13.394 1.98c1.548 0 2.604.888 2.604 2.76v3.66h-1.152V83.59c0-1.248-.6-1.86-1.644-1.86-1.152 0-1.908.732-1.908 2.112v3.276h-1.152V83.59c0-1.248-.6-1.86-1.644-1.86-1.152 0-1.908.732-1.908 2.112v3.276h-1.152v-6.36h1.104v.948c.456-.648 1.236-1.008 2.196-1.008.972 0 1.788.384 2.208 1.176.48-.72 1.368-1.176 2.448-1.176zm57.54 6.516c-1.968 0-3.432-1.56-3.432-4.296s1.464-4.296 3.432-4.296c1.956 0 3.42 1.56 3.42 4.296s-1.464 4.296-3.42 4.296zm0-1.068c1.308 0 2.22-1.08 2.22-3.228s-.912-3.228-2.22-3.228c-1.32 0-2.232 1.08-2.232 3.228s.912 3.228 2.232 3.228zm4.056-7.428h3.084v8.4h-1.188v-7.356h-1.896v-1.044zm5.714 3.624a.812.812 0 01-.816-.828c0-.48.372-.816.816-.816.432 0 .792.336.792.816 0 .48-.36.828-.792.828zm0 4.848a.812.812 0 01-.816-.828c0-.48.372-.816.816-.816.432 0 .792.336.792.816 0 .48-.36.828-.792.828zm1.447-8.472h3.084v8.4h-1.188v-7.356h-1.896v-1.044zm8.353 8.496c-1.968 0-3.432-1.56-3.432-4.296s1.464-4.296 3.432-4.296c1.956 0 3.42 1.56 3.42 4.296s-1.464 4.296-3.42 4.296zm0-1.068c1.308 0 2.22-1.08 2.22-3.228s-.912-3.228-2.22-3.228c-1.32 0-2.232 1.08-2.232 3.228s.912 3.228 2.232 3.228zm49.67 1.068c-1.968 0-3.432-1.56-3.432-4.296s1.464-4.296 3.432-4.296c1.956 0 3.42 1.56 3.42 4.296s-1.464 4.296-3.42 4.296zm0-1.068c1.308 0 2.22-1.08 2.22-3.228s-.912-3.228-2.22-3.228c-1.32 0-2.232 1.08-2.232 3.228s.912 3.228 2.232 3.228zm8.004 1.068c-1.968 0-3.432-1.56-3.432-4.296s1.464-4.296 3.432-4.296c1.956 0 3.42 1.56 3.42 4.296s-1.464 4.296-3.42 4.296zm0-1.068c1.308 0 2.22-1.08 2.22-3.228s-.912-3.228-2.22-3.228c-1.32 0-2.232 1.08-2.232 3.228s.912 3.228 2.232 3.228zm5.364-3.804a.812.812 0 01-.816-.828c0-.48.372-.816.816-.816.432 0 .792.336.792.816 0 .48-.36.828-.792.828zm0 4.848a.812.812 0 01-.816-.828c0-.48.372-.816.816-.816.432 0 .792.336.792.816 0 .48-.36.828-.792.828zm3.523-1.116h4.308v1.044h-6.036v-.816l3.42-3.3c.888-.864 1.056-1.392 1.056-1.92 0-.864-.612-1.392-1.788-1.392-.9 0-1.632.288-2.148.912l-.816-.708c.648-.804 1.764-1.272 3.072-1.272 1.752 0 2.88.9 2.88 2.34 0 .816-.24 1.548-1.38 2.64l-2.568 2.472zm8.691 1.14c-1.968 0-3.432-1.56-3.432-4.296s1.464-4.296 3.432-4.296c1.956 0 3.42 1.56 3.42 4.296s-1.464 4.296-3.42 4.296zm0-1.068c1.308 0 2.22-1.08 2.22-3.228s-.912-3.228-2.22-3.228c-1.32 0-2.232 1.08-2.232 3.228s.912 3.228 2.232 3.228z" fill="#9F9F9F"/></g><defs><clipPath id="clip0_4216_8700"><path fill="#fff" transform="translate(14.92 15.528)" d="M0 0h609.857v75.59H0z"/></clipPath><clipPath id="clip1_4216_8700"><path fill="#fff" transform="translate(14.92 22.068)" d="M0 0h548.544v45.78H0z"/></clipPath><clipPath id="clip2_4216_8700"><path fill="#fff" transform="translate(78.92 22.068)" d="M0 0h4.905v40.875H0z"/></clipPath><clipPath id="clip3_4216_8700"><path fill="#fff" transform="translate(83.824 22.068)" d="M0 0h285.309v45.78H0z"/></clipPath><clipPath id="clip4_4216_8700"><path fill="#fff" transform="translate(83.824 22.068)" d="M0 0h285.309v16.35H0z"/></clipPath><clipPath id="clip5_4216_8700"><path fill="#fff" transform="translate(88.728 22.068)" d="M0 0h3.27v16.35H0z"/></clipPath><clipPath id="clip6_4216_8700"><path fill="#fff" transform="translate(96.904 22.068)" d="M0 0h3.27v16.35H0z"/></clipPath><clipPath id="clip7_4216_8700"><path fill="#fff" transform="translate(105.078 22.068)" d="M0 0h3.27v16.35H0z"/></clipPath><clipPath id="clip8_4216_8700"><path fill="#fff" transform="translate(113.254 22.068)" d="M0 0h3.27v16.35H0z"/></clipPath><clipPath id="clip9_4216_8700"><path fill="#fff" transform="translate(121.428 22.068)" d="M0 0h3.27v16.35H0z"/></clipPath><clipPath id="clip10_4216_8700"><path fill="#fff" transform="translate(129.604 22.068)" d="M0 0h3.27v16.35H0z"/></clipPath><clipPath id="clip11_4216_8700"><path fill="#fff" transform="translate(137.779 22.068)" d="M0 0h3.27v16.35H0z"/></clipPath><clipPath id="clip12_4216_8700"><path fill="#fff" transform="translate(145.953 22.068)" d="M0 0h3.27v16.35H0z"/></clipPath><clipPath id="clip13_4216_8700"><path fill="#fff" transform="translate(154.129 22.068)" d="M0 0h3.27v16.35H0z"/></clipPath><clipPath id="clip14_4216_8700"><path fill="#fff" transform="translate(162.305 22.068)" d="M0 0h3.27v16.35H0z"/></clipPath><clipPath id="clip15_4216_8700"><path fill="#fff" transform="translate(170.479 22.068)" d="M0 0h3.27v16.35H0z"/></clipPath><clipPath id="clip16_4216_8700"><path fill="#fff" transform="translate(178.654 22.068)" d="M0 0h3.27v16.35H0z"/></clipPath><clipPath id="clip17_4216_8700"><path fill="#fff" transform="translate(186.828 22.068)" d="M0 0h3.27v16.35H0z"/></clipPath><clipPath id="clip18_4216_8700"><path fill="#fff" transform="translate(195.004 22.068)" d="M0 0h3.27v16.35H0z"/></clipPath><clipPath id="clip19_4216_8700"><path fill="#fff" transform="translate(203.18 22.068)" d="M0 0h3.27v16.35H0z"/></clipPath><clipPath id="clip20_4216_8700"><path fill="#fff" transform="translate(211.354 22.068)" d="M0 0h3.27v16.35H0z"/></clipPath><clipPath id="clip21_4216_8700"><path fill="#fff" transform="translate(219.529 22.068)" d="M0 0h3.27v16.35H0z"/></clipPath><clipPath id="clip22_4216_8700"><path fill="#fff" transform="translate(227.703 22.068)" d="M0 0h3.27v16.35H0z"/></clipPath><clipPath id="clip23_4216_8700"><path fill="#fff" transform="translate(235.879 22.068)" d="M0 0h3.27v16.35H0z"/></clipPath><clipPath id="clip24_4216_8700"><path fill="#fff" transform="translate(244.055 22.068)" d="M0 0h3.27v16.35H0z"/></clipPath><clipPath id="clip25_4216_8700"><path fill="#fff" transform="translate(252.229 22.068)" d="M0 0h3.27v16.35H0z"/></clipPath><clipPath id="clip26_4216_8700"><path fill="#fff" transform="translate(260.404 22.068)" d="M0 0h3.27v16.35H0z"/></clipPath><clipPath id="clip27_4216_8700"><path fill="#fff" transform="translate(268.58 22.068)" d="M0 0h3.27v16.35H0z"/></clipPath><clipPath id="clip28_4216_8700"><path fill="#fff" transform="translate(276.754 22.068)" d="M0 0h3.27v16.35H0z"/></clipPath><clipPath id="clip29_4216_8700"><path fill="#fff" transform="translate(284.93 22.068)" d="M0 0h3.27v16.35H0z"/></clipPath><clipPath id="clip30_4216_8700"><path fill="#fff" transform="translate(293.104 22.068)" d="M0 0h3.27v16.35H0z"/></clipPath><clipPath id="clip31_4216_8700"><path fill="#fff" transform="translate(301.279 22.068)" d="M0 0h3.27v16.35H0z"/></clipPath><clipPath id="clip32_4216_8700"><path fill="#fff" transform="translate(309.455 22.068)" d="M0 0h3.27v16.35H0z"/></clipPath><clipPath id="clip33_4216_8700"><path fill="#fff" transform="translate(317.629 22.068)" d="M0 0h3.27v16.35H0z"/></clipPath><clipPath id="clip34_4216_8700"><path fill="#fff" transform="translate(325.805 22.068)" d="M0 0h3.27v16.35H0z"/></clipPath><clipPath id="clip35_4216_8700"><path fill="#fff" transform="translate(333.979 22.068)" d="M0 0h3.27v16.35H0z"/></clipPath><clipPath id="clip36_4216_8700"><path fill="#fff" transform="translate(342.154 22.068)" d="M0 0h3.27v16.35H0z"/></clipPath><clipPath id="clip37_4216_8700"><path fill="#fff" transform="translate(350.33 22.068)" d="M0 0h3.27v16.35H0z"/></clipPath><clipPath id="clip38_4216_8700"><path fill="#fff" transform="translate(358.504 22.068)" d="M0 0h3.27v16.35H0z"/></clipPath><clipPath id="clip39_4216_8700"><path fill="#fff" transform="translate(366.68 22.068)" d="M0 0h3.27v16.35H0z"/></clipPath><clipPath id="clip40_4216_8700"><path fill="#fff" transform="translate(369.133 22.068)" d="M0 0h4.905v40.875H0z"/></clipPath><linearGradient id="paint0_linear_4216_8700" x1="-.403" y1=".466" x2="638.597" y2="106.466" gradientUnits="userSpaceOnUse"><stop stop-color="#2D2E36" stop-opacity="0"/><stop offset="1" stop-color="#2D2E36"/></linearGradient></defs></svg>