<svg width="218" height="80" fill="none" xmlns="http://www.w3.org/2000/svg"><path d="M74.016 30.891v27.832l-4.858-.3V32.194a8.188 8.188 0 00-4.34-7.139L44.09 13.23a9.066 9.066 0 00-8.681 0l-20.68 11.826a8.175 8.175 0 00-4.34 7.14v26.219l-4.884.296V30.878a10.13 10.13 0 015.065-8.738L34.69 7.592a10.127 10.127 0 0110.12 0L68.934 22.14a10.127 10.127 0 015.083 8.751zm2.561 30.889v-1.339H2.48v1.339H9.1v1.661H2.48v1.334h11.627v1.661H3.78v1.339h16.36v1.66h-8.28v1.335h18.578v1.661H27.8v1.334h23.906v-1.334h-2.98v-1.66h18.47v-1.335H59.13v-1.661h16.15v-1.339h-9.843v-1.66h11.14V63.44h-5.898v-1.66h5.899z" fill="#fff"/><path d="M14.757 28.885l.41 1.45 1.449.41-1.449.415-.41 1.45-.416-1.45-1.448-.415 1.448-.41.416-1.45zM55.74 25.28l.41 1.454 1.448.41-1.448.411-.41 1.454-.416-1.454-1.448-.41 1.448-.411.415-1.454zm-16.869-8.57l.41 1.453 1.449.411-1.448.411-.411 1.454-.415-1.454-1.448-.41 1.448-.412.415-1.453zm5.365 16.195l.41 1.454 1.453.41-1.452.411-.411 1.45-.41-1.45-1.453-.41 1.452-.411.411-1.454zm-7.789-4.845l.534 1.886 1.89.534-1.89.539-.534 1.886-.535-1.886-1.885-.539 1.885-.535.535-1.886zM47.88 41.185l.533 1.886 1.886.535-1.886.534-.534 1.886-.539-1.886-1.885-.535 1.885-.534.54-1.886zm-32.267 8.508l.698 2.474 2.477.702-2.477.703-.698 2.474-.702-2.474-2.473-.703 2.473-.702.702-2.474zM59.899 37.39l.834 2.955 2.959.839-2.959.835-.834 2.96-.84-2.96-2.953-.835 2.954-.84.839-2.955z" fill="#fff"/><path d="M51.116 52.282A22.875 22.875 0 0133.298 40.97a22.899 22.899 0 01-.989-21.088 22.883 22.883 0 00-13.858 16.36A22.903 22.903 0 0024.21 56.9a22.882 22.882 0 0020.32 6.826A22.876 22.876 0 0061.581 50.73a22.794 22.794 0 01-10.465 1.55z" fill="#fff"/><path d="M122.065 54h-6.971l-4.648-6.498L105.641 54h-6.695l8.153-10.673-7.877-10.516h6.892l4.49 6.184 4.608-6.184h6.538l-7.877 10.358L122.065 54z" fill="#E6004D"/><path d="M153.206 30l-11.937-14.978 10.231 1.76 1.728-14.784 13.064 7.274L170.854 0l2.415 12.219c-16 2.774-15.074 11.586-20.056 17.774l-.007.007z" fill="#fff"/><path d="M180.269 17c18.221 0 32.932 10.06 33 25.793.045 10.317-4.86 18.326-14.044 22.902V72h-6.719v-6.305L188.266 72h-6.661v-6.305L177.366 72h-6.661v-6.305c-.066-.01-9.339-1.47-13.898-4.77-6.664-4.824-9.538-11.06-9.538-18.132 0-14.248 14.779-25.793 33-25.793zm-8.892 17.425c-6.208 0-11.239 5.032-11.24 11.24 0 6.206 5.032 11.238 11.24 11.238 6.207 0 11.239-5.032 11.239-11.239 0-6.207-5.032-11.24-11.239-11.24zm25.541 2.808a8.431 8.431 0 100 16.863 8.432 8.432 0 000-16.863z" fill="#fff"/></svg>