<svg width="120" height="120" fill="none" xmlns="http://www.w3.org/2000/svg"><g clip-path="url(#clip0_3257_65056)"><path d="M55.628 108.254h.052c-4.637 0-9.251-.599-13.71-1.779L55.6 55.51v-.038L29.075 101.18a53.49 53.49 0 01-11.012-8.387L55.62 55.336l-.02-.018.043-.024H55.6v-.009l-.184.052H2.4v.107c0-4.593.598-9.168 1.775-13.593l51.17 13.486h.095L9.485 29.015a53.339 53.339 0 018.423-10.967l37.664 37.288h.066l.028.07v-.019l-.024-.051h.02l-.067-.244V2.428h.08c4.6 0 9.176.59 13.606 1.752L55.736 55.29l26.45-45.838A53.416 53.416 0 0193.22 17.83L55.783 55.341h-.051l-.109.09h.01v.009h.019l.381-.099H108.8v.103c0 4.612-.607 9.201-1.799 13.64L55.755 55.506l45.917 26.354a52.848 52.848 0 01-8.432 10.905L55.647 55.496h-.042v.018l.023 52.735v.005zM55.6 55.786l-.123.459c.048.014.09.019.123.023v-.482zm-.085-.295l-.532.534a.67.67 0 00.16.117l.372-.651zm.16 0l.537.53a.637.637 0 00.118-.155l-.655-.375zm.184-.15l.57.15c.014-.06.023-.112.028-.15h-.598zm-.18-.005h.01l.509-.51a.673.673 0 00-.156-.117l-.362.627zm-.084 0h.01l.193-.725c-.109-.028-.184-.028-.203-.028v.758-.005zm-.136 0h.018l-.503-.5a.675.675 0 00-.118.154l.603.346zm-.725 0h.39l-.372-.098c-.009.038-.014.07-.023.099h.005zm14.641 51.134l-13.55-50.234a.963.963 0 00.175-.07l26.214 44.999a53.21 53.21 0 01-12.839 5.305zM9.622 81.943a52.693 52.693 0 01-5.348-12.765l50.493-13.532c.018.06.042.121.07.178L9.622 81.942zm46.114-26.555l.085-.047h.094l-.179.047zm-.103-.094l-.038-.06v-.07l.038.13zm.786-.121a1.116 1.116 0 00-.07-.174l45.163-26.208a52.583 52.583 0 015.372 12.76l-50.47 13.622h.005zm-1.238-.51L28.878 9.713a53.256 53.256 0 0112.824-5.328L55.36 54.592a1.178 1.178 0 00-.18.07z" fill="url(#paint0_radial_3257_65056)"/><path d="M55.6 18.424c-9.18 0-10.325-1.222-10.325-11.013 0 9.791-1.148 11.013-10.324 11.013 9.18 0 10.324 1.223 10.324 11.014 0-9.791 1.149-11.014 10.325-11.014zM75.374 3.893c-4.576 0-5.146-.61-5.146-5.493 0 4.88-.57 5.493-5.146 5.493 4.576 0 5.146.608 5.146 5.492 0-4.879.57-5.492 5.146-5.492z" fill="#E6004D"/><path opacity=".2" d="M15.347 41.49c4.81 0 8.71-3.879 8.71-8.663 0-4.784-3.9-8.663-8.71-8.663-4.81 0-8.71 3.878-8.71 8.663 0 4.784 3.9 8.663 8.71 8.663z" fill="#E6004D"/><path d="M15.347 35.402c1.43 0 2.59-1.153 2.59-2.575a2.582 2.582 0 00-2.59-2.575 2.582 2.582 0 00-2.59 2.575 2.582 2.582 0 002.59 2.575z" fill="#E6004D"/><path opacity=".2" d="M88.05 38.439c3.12 0 5.649-2.516 5.649-5.62 0-3.103-2.53-5.618-5.65-5.618-3.12 0-5.65 2.515-5.65 5.619 0 3.103 2.53 5.619 5.65 5.619z" fill="#E6004D"/><path d="M88.05 34.492c.928 0 1.68-.749 1.68-1.672 0-.923-.752-1.672-1.68-1.672-.929 0-1.681.749-1.681 1.672 0 .923.752 1.672 1.68 1.672z" fill="#E6004D"/><path fill="#000" d="M43.621 53.769h41.263v47.452H43.621z"/><path d="M62.533 53.168v-6.534h-9.8v-6.533h-19.6v6.533h-9.8v62.067h39.2v-2.321l-13.067-4.213h39.2v-49H62.533zm-6.534 42.466h-6.533v-6.533H56v6.533zm0-29.4h-6.533v-6.533H56v6.533zm13.067 29.4h-6.533v-6.533h6.533v6.533zm0-29.4h-6.533v-6.533h6.533v6.533zm13.067 29.4h-6.534v-6.533h6.534v6.533zm0-29.4h-6.534v-6.533h6.534v6.533z" fill="#fff"/></g><defs><radialGradient id="paint0_radial_3257_65056" cx="0" cy="0" r="1" gradientUnits="userSpaceOnUse" gradientTransform="matrix(53.2 0 0 52.9129 55.6 55.341)"><stop stop-color="#E41157"/><stop offset="1" stop-color="#E41157" stop-opacity="0"/></radialGradient><clipPath id="clip0_3257_65056"><path fill="#fff" transform="translate(2.4)" d="M0 0h106.4v113.6H0z"/></clipPath></defs></svg>