<svg width="120" height="120" fill="none" xmlns="http://www.w3.org/2000/svg"><g clip-path="url(#clip0_3257_65107)"><path d="M59.977 121.614h.06a62.821 62.821 0 01-16.065-2.085l15.972-59.724v-.044L28.86 113.323a62.688 62.688 0 01-12.904-9.828l44.01-43.894-.022-.021.05-.028h-.05v-.01l-.215.06H-2.4v.126c0-5.383.7-10.745 2.08-15.93L59.646 59.6h.11L5.903 28.758a62.504 62.504 0 019.87-12.852l44.138 43.697h.077l.033.082v-.022l-.028-.06h.023l-.078-.286V-2.4h.094c5.39 0 10.753.691 15.945 2.052L60.104 59.547 91.099 5.83a62.583 62.583 0 0112.932 9.817l-43.872 43.96h-.06l-.128.104h.012v.011h.022l.446-.115h61.837v.12c0 5.406-.712 10.783-2.108 15.985L60.126 59.8l53.809 30.883a61.95 61.95 0 01-9.882 12.78L59.999 59.788h-.05v.022l.028 61.799v.005zm-.033-61.486l-.144.538c.056.017.105.022.144.028v-.566zm-.1-.345l-.623.625a.785.785 0 00.188.137l.435-.762zm.188 0l.63.62a.799.799 0 00.137-.181l-.767-.44zm.215-.176l.668.176c.016-.072.028-.132.033-.176h-.7zm-.21-.005h.012l.596-.599a.787.787 0 00-.183-.137l-.424.736zm-.099 0h.011l.227-.851c-.127-.033-.216-.033-.238-.033v.889-.005zm-.16 0h.022l-.59-.588c-.05.05-.1.11-.138.181l.706.407zm-.85 0h.459l-.436-.116c-.011.044-.017.083-.028.116h.006zm17.159 59.922L60.209 60.655a1.24 1.24 0 00.204-.082l30.72 52.733a62.319 62.319 0 01-15.046 6.218zM6.063 90.781A61.753 61.753 0 01-.204 75.822l59.171-15.858c.022.071.05.142.083.208L6.063 90.781zm54.04-31.12l.1-.054h.11l-.21.055zm-.12-.109l-.045-.071v-.083l.044.154zm.92-.143a1.299 1.299 0 00-.082-.203l52.926-30.713a61.58 61.58 0 016.295 14.954L60.898 59.409h.006zm-1.45-.598L28.628 6.138a62.412 62.412 0 0115.03-6.245L59.662 58.73c-.072.022-.144.05-.21.082z" fill="url(#paint0_radial_3257_65107)"/><path d="M10.313 24h98.574v72.288H10.312V24z" fill="#fff"/><path transform="rotate(90 108.888 24)" fill="url(#paint1_linear_3257_65107)" d="M108.888 24h8.762v98.575h-8.762z"/><path fill="#fff" d="M105.966 28.496l-2.306 2.306-2.306-2.306 2.306-2.306zm-6.456 0l-2.306 2.306-2.306-2.306 2.306-2.306zm-6.456 0l-2.306 2.306-2.306-2.306 2.306-2.305z"/><path d="M45.528 61.621L36.704 50.41l7.562 1.318 1.278-11.066 9.657 5.444 3.372-6.94 1.785 9.146c-11.827 2.077-11.143 8.673-14.825 13.305l-.005.005z" fill="url(#paint2_linear_3257_65107)"/><path d="M62.6 52.045c11.51 0 20.801 6.775 20.845 17.37.028 6.949-3.07 12.342-8.87 15.424v5.527H70.33v-5.527l-2.677 5.527h-4.207v-5.527l-2.678 5.527H56.56v-5.527s-5.889-.981-8.779-3.212c-4.21-3.249-6.024-7.449-6.024-12.212 0-9.595 9.334-17.37 20.843-17.37zm-5.732 13.666a7.193 7.193 0 10.002 14.387 7.193 7.193 0 00-.002-14.387zm16.347 1.798a5.396 5.396 0 10.001 10.792 5.396 5.396 0 000-10.792z" fill="url(#paint3_linear_3257_65107)"/></g><defs><linearGradient id="paint1_linear_3257_65107" x1="113.269" y1="24" x2="113.269" y2="122.575" gradientUnits="userSpaceOnUse"><stop stop-color="#E41157"/><stop offset="1"/></linearGradient><linearGradient id="paint2_linear_3257_65107" x1="48.531" y1="44.121" x2="48.531" y2="73.538" gradientUnits="userSpaceOnUse"><stop stop-color="#E41157"/><stop offset=".82" stop-color="#E41157" stop-opacity="0"/></linearGradient><linearGradient id="paint3_linear_3257_65107" x1="62.602" y1="60.502" x2="62.602" y2="110.702" gradientUnits="userSpaceOnUse"><stop stop-color="#E41157"/><stop offset=".82" stop-color="#E41157" stop-opacity="0"/></linearGradient><radialGradient id="paint0_radial_3257_65107" cx="0" cy="0" r="1" gradientUnits="userSpaceOnUse" gradientTransform="matrix(62.3438 0 0 62.0074 59.944 59.607)"><stop stop-color="#E41157"/><stop offset="1" stop-color="#E41157" stop-opacity="0"/></radialGradient><clipPath id="clip0_3257_65107"><path fill="#fff" d="M0 0h120v120H0z"/></clipPath></defs></svg>