<svg width="120" height="97" fill="none" xmlns="http://www.w3.org/2000/svg"><g clip-path="url(#clip0_3778_1741)"><path d="M75.88 89.346c24.366 0 44.12-19.825 44.12-44.28C120 20.61 100.246.786 75.88.786c-24.368 0-44.122 19.824-44.122 44.28 0 24.455 19.754 44.28 44.121 44.28z" fill="url(#paint0_linear_3778_1741)"/><path d="M63.386 44.195l22.767 22.849 22.767-22.85-22.767-22.849-22.767 22.85z" fill="url(#paint1_linear_3778_1741)"/><path d="M20.325 43.362l-10.164-10.2-10.164 10.2L10.16 53.563l10.164-10.2zm73.585.838l-7.762-7.79-7.762 7.79 7.762 7.79 7.762-7.79zM52.306 68.005l-23.992-8.51-4.749 37.29H49.05l-4.472-22.191 8.1 3.739-.371-10.328z" fill="#fff"/><path d="M74.25 10.967c.026 4.552-.673 8.985-2.416 12.955a96.272 96.272 0 00-2.17-7.055c-5.09 5.566-15.653 13.049-35.668 13.049l-16.16.244c-4.71 8.026-4.834 24.334.115 28.89l16.041.168c21.417 0 31.239 7.658 35.57 13.3a97.114 97.114 0 002.267-7.332c1.77 4.026 2.464 8.526 2.418 13.143l7.272-.441.541-66.519-7.81-.397v-.005z" fill="#fff"/><path opacity=".2" d="M108.925 22.87c3.605 0 6.527-2.933 6.527-6.55s-2.922-6.55-6.527-6.55c-3.604 0-6.526 2.933-6.526 6.55s2.922 6.55 6.526 6.55z" fill="#E6004D"/><path d="M108.925 18.283a1.96 1.96 0 001.957-1.963 1.96 1.96 0 00-1.957-1.964 1.96 1.96 0 00-1.956 1.964 1.96 1.96 0 001.956 1.963z" fill="#E6004D"/><path opacity=".2" d="M111.415 38.695a4.33 4.33 0 004.322-4.338 4.33 4.33 0 00-4.322-4.338 4.33 4.33 0 00-4.323 4.338 4.33 4.33 0 004.323 4.338z" fill="#E6004D"/><path d="M111.415 35.657c.716 0 1.296-.582 1.296-1.3a1.297 1.297 0 10-2.592 0c0 .718.58 1.3 1.296 1.3z" fill="#E6004D"/><path opacity=".2" d="M92.87 77.2a3.69 3.69 0 003.684-3.696 3.69 3.69 0 00-3.683-3.697 3.69 3.69 0 00-3.683 3.697A3.69 3.69 0 0092.87 77.2z" fill="#E6004D"/><path d="M92.87 74.611c.61 0 1.105-.496 1.105-1.108 0-.612-.494-1.108-1.104-1.108-.61 0-1.104.496-1.104 1.108 0 .612.494 1.108 1.104 1.108z" fill="#E6004D"/></g><defs><linearGradient id="paint0_linear_3778_1741" x1="47.774" y1="45.066" x2="136.015" y2="45.066" gradientUnits="userSpaceOnUse"><stop offset=".18" stop-color="#E41157" stop-opacity="0"/><stop offset="1" stop-color="#E41157"/></linearGradient><linearGradient id="paint1_linear_3778_1741" x1="123.568" y1="54.946" x2="78.091" y2="54.946" gradientUnits="userSpaceOnUse"><stop stop-color="#E41157"/><stop offset=".82" stop-color="#E41157" stop-opacity="0"/></linearGradient><clipPath id="clip0_3778_1741"><path fill="#fff" transform="translate(0 .786)" d="M0 0h120v96H0z"/></clipPath></defs></svg>