<svg width="120" height="110" fill="none" xmlns="http://www.w3.org/2000/svg"><g clip-path="url(#clip0_3778_3181)"><path d="M52.234 52.422c0-2.46 1.073-6.634 4.094-10.31 2.637-3.203 7.606-7.023 16.314-7.023 6.275 0 11.928 2.337 16.352 6.757 6.127 6.118 8.307 14.391 8.307 20.091 0 8.109-3.532 16.29-9.697 22.445-6.68 6.676-15.621 10.353-25.17 10.353-10.86 0-20.835-3.993-28.09-11.244-7.2-7.196-11.168-17.235-11.168-28.268 0-12.693 5.07-24.587 14.277-33.486 9.098-8.793 21.14-13.639 33.905-13.639 2.07 0 4.098.097 6.105.296A51.745 51.745 0 0064.26 6.69c-28.492 0-51.591 23.079-51.591 51.55 0 28.47 23.1 51.549 51.591 51.549 28.492 0 49.961-19.894 49.961-48.364 0-12.676-4.086-23.459-11.819-31.183-7.711-7.707-18.735-11.95-31.04-11.95-10.343 0-20.023 3.981-27.253 11.21-6.917 6.909-10.724 16.044-10.724 25.72 0 8.43 2.827 15.714 8.18 21.06 5.329 5.323 12.74 8.256 20.874 8.256 6.689 0 12.976-2.527 17.704-7.12 4.424-4.293 6.96-9.938 6.96-15.482 0-3.769-1.644-9.21-5.32-12.883-2.506-2.501-5.578-3.773-9.14-3.773-5.966 0-8.379 2.818-9.486 4.88a1.164 1.164 0 00-.13.554c0 .52.341.963.81 1.115 2.696.875 4.555 3.541 4.555 6.537 0 3.85-3.122 6.203-6.976 6.203-3.853 0-9.181-3.74-9.181-12.152v.004z" fill="url(#paint0_linear_3778_3181)"/><path d="M120 107.136L91.12 95.842V83L120 69.63v37.505zM75.858 71.462c12.515 0 22.66-10.146 22.66-22.66 0-12.516-10.145-22.661-22.66-22.661s-22.66 10.145-22.66 22.66 10.145 22.66 22.66 22.66z" fill="#fff"/><path d="M37.319 71.462c9.875 0 17.881-8.006 17.881-17.882 0-9.876-8.006-17.882-17.882-17.882-9.875 0-17.881 8.006-17.881 17.882 0 9.876 8.006 17.882 17.881 17.882z" fill="#fff"/><path d="M81.306 48.804l-5.45-5.45-5.449 5.45 5.45 5.45 5.45-5.45zm-38.54 4.776l-5.45-5.45-5.45 5.45 5.45 5.45 5.45-5.45z" fill="#000"/><path d="M86.011 76.82h-60.14v11.97c6.436-.756 12.761-.477 18.702 1.222a180.233 180.233 0 00-6.824 3.549l.11 14.856h32.89c-2.171-3.16-3.946-6.507-5.205-10.048 6.574 3.516 13.403 6.668 20.467 9.309V76.816v.004z" fill="#fff"/><path d="M80.328 81.788H54.123V92.58h26.205V81.788z" fill="url(#paint1_linear_3778_3181)"/><path opacity=".2" d="M7.817 99.23a7.817 7.817 0 100-15.634 7.817 7.817 0 000 15.634z" fill="#E6004D"/><path d="M7.817 93.737a2.324 2.324 0 100-4.648 2.324 2.324 0 000 4.648z" fill="#E6004D"/><path opacity=".2" d="M91.128 10.498a5.07 5.07 0 100-10.141 5.07 5.07 0 000 10.14z" fill="#E6004D"/><path d="M91.128 6.936a1.508 1.508 0 100-3.017 1.508 1.508 0 000 3.017z" fill="#E6004D"/></g><defs><linearGradient id="paint0_linear_3778_3181" x1="63.444" y1="6.691" x2="63.444" y2="109.793" gradientUnits="userSpaceOnUse"><stop stop-color="#DD2151"/><stop offset=".82" stop-color="#DD2151" stop-opacity="0"/></linearGradient><linearGradient id="paint1_linear_3778_3181" x1="54.123" y1="87.184" x2="80.328" y2="87.184" gradientUnits="userSpaceOnUse"><stop stop-color="#070202"/><stop offset="1" stop-color="#E41157"/></linearGradient><clipPath id="clip0_3778_3181"><path fill="#fff" transform="translate(0 .357)" d="M0 0h120v109.437H0z"/></clipPath></defs></svg>