<svg width="98" height="120" fill="none" xmlns="http://www.w3.org/2000/svg"><g clip-path="url(#clip0_3778_3103)"><path fill-rule="evenodd" clip-rule="evenodd" d="M78.032 41.214c1.893 10.395-4.628 24.492-13.42 28.41C80.766 48.537 74.703 9.206 52.173 0c7.683 11.825 4.412 21.245-2.369 28.902 2.563-6.49 2.721-13.606-1.81-21.144-.779 24.961-35.29 30.53-35.906 67.277a33.896 33.896 0 00-.092 1.65c0 1.667.105 3.312.321 4.922 2.514 19.056 19.4 33.786 39.856 33.786-20.214-5.248-33.85-22.588-29.808-44.457-.502 12.396 7.036 28.547 18.642 33.926 29.667 13.738 67.252-22.72 37.025-63.648z" fill="url(#paint0_linear_3778_3103)"/><path opacity=".2" d="M29.119 24.571c4.498 0 8.145-3.634 8.145-8.117 0-4.483-3.647-8.118-8.145-8.118-4.499 0-8.146 3.635-8.146 8.118 0 4.483 3.647 8.117 8.146 8.117z" fill="#E6004D"/><path d="M29.119 18.867a2.417 2.417 0 002.422-2.413 2.418 2.418 0 00-2.422-2.414 2.417 2.417 0 00-2.422 2.414 2.417 2.417 0 002.422 2.413z" fill="#E6004D"/><path opacity=".2" d="M82.043 35.29c2.918 0 5.283-2.358 5.283-5.266s-2.365-5.265-5.283-5.265-5.284 2.357-5.284 5.265c0 2.908 2.366 5.265 5.284 5.265z" fill="#E6004D"/><path d="M82.043 31.591a1.57 1.57 0 001.572-1.566 1.57 1.57 0 00-1.572-1.566 1.57 1.57 0 00-1.572 1.566 1.57 1.57 0 001.572 1.566z" fill="#E6004D"/><path opacity=".2" d="M5.057 91.453a4.022 4.022 0 004.028-4.014 4.022 4.022 0 00-4.028-4.015 4.022 4.022 0 00-4.03 4.015 4.022 4.022 0 004.03 4.014z" fill="#E6004D"/><path d="M5.057 88.632c.661 0 1.197-.535 1.197-1.194 0-.659-.536-1.193-1.197-1.193-.662 0-1.198.534-1.198 1.193 0 .66.536 1.194 1.198 1.194z" fill="#E6004D"/><path d="M53.12 52.933L39.184 66.815 64.52 91.55l-7.002 5.419 5.725 6.143 1.567-11.28 21.32 20.814.449 7.354-7.376-.448L33.46 72.524 19.437 86.5.786 67.913l13.728-13.682-.061-.047-4.614 1.996-.032-.03 3.682-3.669h-3v-8.324h8.35v2.989l3.772-3.76.031.03-1.84 4.22.044-.043.145.184 13.477-13.43L53.12 52.933z" fill="url(#paint1_linear_3778_3103)"/><path d="M24.731 56.992v5.856h5.887v-5.856H24.73z" fill="#000"/><path fill-rule="evenodd" clip-rule="evenodd" d="M59.967 57.3c-1.74 3.005-3.589 6.774-4.302 10.083-.845-2.16-1.092-4.48-.863-6.863-3.672 2.255-7.468 5.107-11.4 8.71a66.416 66.416 0 00-5.212 5.305c-.85 3.589-1.251 7.17-.916 10.74-1.383-1.71-2.814-5.422-3.329-7.62-4.79 4.988-5.006 14.93-2.739 21.297 9.81-15.62 20.84-25.905 38.826-33.605-35.91 26.3-44.36 53.613-44.36 53.613l-.049.136.08-.114.717.623 12.24-16.111s22.249-2.51 26.797-13.923c-2.355-.118-4.588-.684-6.587-1.803 3.593-.259 8.894-1.909 12.311-3.33.617-.75 18.211-29.736 26.414-39.551-25.12 4.278-36.488 10.767-37.62 12.413h-.008z" fill="#fff"/></g><defs><linearGradient id="paint0_linear_3778_3103" x1="50.592" y1="0" x2="50.592" y2="115.397" gradientUnits="userSpaceOnUse"><stop stop-color="#E6004D"/><stop offset=".82" stop-color="#E6004D" stop-opacity="0"/></linearGradient><linearGradient id="paint1_linear_3778_3103" x1="39.429" y1="143.895" x2="45.452" y2="56.554" gradientUnits="userSpaceOnUse"><stop stop-color="#E6004D" stop-opacity="0"/><stop offset="1" stop-color="#E6004D"/></linearGradient><clipPath id="clip0_3778_3103"><path fill="#fff" transform="translate(.786)" d="M0 0h96.8v120H0z"/></clipPath></defs></svg>