<svg width="24" height="24" fill="none" xmlns="http://www.w3.org/2000/svg"><path d="M18.942 6.27A16.54 16.54 0 0014.816 5c-.195.349-.372.707-.529 1.074a15.366 15.366 0 00-4.579 0A11.386 11.386 0 009.179 5c-1.425.243-2.814.67-4.129 1.273-2.611 3.863-3.319 7.63-2.965 11.345a16.622 16.622 0 005.06 2.54c.41-.551.773-1.136 1.084-1.748a10.76 10.76 0 01-1.706-.814c.143-.104.283-.211.418-.315a11.887 11.887 0 0010.118 0c.137.112.277.219.418.315-.545.321-1.117.594-1.71.816.312.612.674 1.196 1.084 1.746a16.558 16.558 0 005.064-2.539c.415-4.307-.71-8.04-2.973-11.35zM8.678 15.333c-.987 0-1.802-.896-1.802-1.997 0-1.1.787-2.004 1.798-2.004 1.012 0 1.82.903 1.803 2.004-.017 1.101-.794 1.997-1.8 1.997zm6.644 0c-.988 0-1.8-.896-1.8-1.997 0-1.1.787-2.004 1.8-2.004s1.816.903 1.798 2.004c-.017 1.101-.793 1.997-1.798 1.997z" fill="#9F9F9F"/></svg>